<svg version="1.2" baseProfile="tiny-ps" xmlns="http://www.w3.org/2000/svg" viewBox="0 0 1920 1920" width="200" height="200">
	<title>1_logo-定</title>
	<style>
		tspan { white-space:pre }
		.shp0 { fill: #FF9A33 } 
	</style>
	<g id="组 1">
		<path id="复合形状" class="shp0" d="M1595.1 1184.88C1601.54 1168.39 1603.58 1112.83 1603.58 1112.83C1603.58 887.73 1335.39 721.73 1243.8 721.33C1243.8 721.33 1319.14 642.22 1319.14 530.77C1319.14 355.58 1098.75 159.68 940.52 159.68C782.29 159.68 686.22 293.42 686.22 382.9C686.22 472.37 692.42 503.32 708.83 539.24C710.9 543.77 717.46 553.89 724.96 550.9C730.96 548.5 728.16 533.75 726.72 528.26C702.58 435.94 774.76 249.78 936.75 249.78C1098.75 249.78 1232.49 407.86 1232.49 530.3C1232.49 652.74 1184.11 709.48 1179.87 714.07C1175.63 718.66 1164.26 730 1166.15 736.74C1167.86 742.8 1181.15 745.87 1187.17 748.16C1447.23 846.76 1535.45 1072.33 1535.45 1216.74C1517.99 1228.44 1504.22 1247.27 1499.51 1258.18C1497.49 1262.84 1491.85 1273.34 1498.01 1278.43C1502.1 1281.81 1510.72 1274.91 1514.81 1272.86C1538.67 1260.88 1582.33 1256.42 1618.67 1276.51C1676.65 1308.57 1692.11 1359.81 1692.11 1413.9C1692.11 1596.62 1356.5 1712.15 1253.27 1672.99C1250.52 1671.94 1244.15 1668.51 1239.79 1674.4C1236.23 1679.21 1241.87 1686.1 1244.38 1687.35C1280.94 1705.6 1311.14 1727.85 1389.78 1727.85C1651.16 1727.85 1750.36 1541.09 1750.36 1450.36C1750.36 1363.38 1721.5 1274.96 1595.1 1184.88Z" />
		<path id="复合形状" class="shp0" d="M1812.9 1316.32C1812.9 1392.46 1751.18 1454.19 1675.03 1454.19C1598.89 1454.19 1537.16 1392.46 1537.16 1316.32C1537.16 1240.17 1598.89 1178.45 1675.03 1178.45C1751.18 1178.45 1812.9 1240.17 1812.9 1316.32Z" />
		<path id="复合形状" class="shp0" d="M929.22 772.51C813.08 774.77 706.47 825.09 657.03 928.22C657.03 928.22 561.9 705.01 366 705.01C170.09 705.01 89.1 877.68 89.1 949.26C89.1 1013.78 113.19 1059.93 129.21 1082.48C131.22 1085.3 136.6 1090.57 141.45 1088.42C147.55 1085.7 147.69 1077.78 146 1072.95C128.18 1022.17 148.43 798.25 360.82 798.25C552.01 798.25 624.27 1006.75 650.08 1102.94C652.03 1110.21 658.79 1128.85 665.97 1128.84C673.33 1128.82 676.02 1117.18 676.02 1099.01C676.02 1006.87 790.77 839.22 921.53 795.03C927.19 793.12 940.65 791.94 941.46 782.4C942.09 775.02 933.15 772.43 929.22 772.51Z" />
		<path id="复合形状" class="shp0" d="M949.9 1739.76C936.64 1746.45 798.15 1747.3 748.62 1720.55C696.33 1692.31 652.31 1610.82 645.73 1553.61C644.23 1540.66 644.96 1531.79 651.02 1525.47C657 1519.25 667.98 1519.07 674.06 1519.07C724.57 1519.07 898.14 1630.79 946.59 1712.37C950.07 1718.23 958.7 1735.32 949.9 1739.76ZM643.05 1280.13C669.24 1278.77 692.18 1280.34 706.87 1282.04C669.04 1251.28 562.37 1249.86 549.68 1299.7C576.57 1288.4 605.73 1283.01 632.36 1280.85C626.81 1310.22 615 1391.91 627.2 1508.71C643.84 1668.04 710.81 1746.08 844.45 1758.46C976.01 1770.64 1099.67 1720.21 1140.64 1687.72C1152.2 1693.94 1163.39 1693.35 1176.45 1689.47C907.81 1608.66 680.92 1460.88 643.05 1280.13Z" />
		<path id="复合形状" class="shp0" d="M1214.6 1127.27C1214.6 1224.02 1197 1301.19 1170.65 1301.19C1144.29 1301.19 1113.45 1222.44 1105.58 1126.01C1097.11 1022.09 1112.58 943.77 1138.94 943.77C1165.29 943.77 1214.6 1030.52 1214.6 1127.27Z" />
		<path id="复合形状" class="shp0" d="M1376.08 1145.26C1376.08 1224.93 1361.59 1288.48 1339.88 1288.48C1318.18 1288.48 1292.79 1223.63 1286.31 1144.22C1279.33 1058.65 1292.07 994.15 1313.77 994.15C1335.48 994.15 1376.08 1065.59 1376.08 1145.26Z" />
		<path id="复合形状" class="shp0" d="M1343.2 1287.52C1341.53 1287.52 1339.87 1286.76 1338.78 1285.32C1336.94 1282.88 1337.47 1279.47 1339.86 1277.57C1355.33 1265.33 1381.47 1255.12 1399.53 1249.42C1402.44 1248.49 1405.56 1250.11 1406.48 1253.02C1407.4 1255.94 1405.78 1259.05 1402.87 1259.97C1386.31 1265.2 1365.92 1273.8 1346.53 1286.4C1345.48 1287.08 1344.36 1287.52 1343.2 1287.52Z" />
	</g>
</svg>