<svg t="1654345135623" class="icon" viewBox="0 0 1024 1024" version="1.1" xmlns="http://www.w3.org/2000/svg" p-id="1807" width="100" height="100"><path d="M416 992H96l32-192h256zM960 288H32V160h480l448 64z" fill="#E0EBFE" p-id="1808"></path><path d="M992 288V224a31.68 31.68 0 0 0-2.4-11.904c-0.512-1.28-1.408-2.24-2.048-3.424a31.616 31.616 0 0 0-4.32-6.4c-1.056-1.152-2.368-1.92-3.616-2.912a31.168 31.168 0 0 0-5.792-3.936c-1.536-0.736-3.2-1.12-4.864-1.6-1.504-0.448-2.816-1.28-4.416-1.504l-448-64A31.488 31.488 0 0 0 512 128h-172.224L284.64 17.696c-10.88-21.696-46.4-21.696-57.28 0L172.224 128H32a32 32 0 0 0-32 32v128a32 32 0 0 0 32 32h128v448H128a32 32 0 0 0-31.552 26.72l-32 192A32 32 0 0 0 96 1024h320.64a32 32 0 0 0 29.888-43.424l-30.976-185.856A32 32 0 0 0 384 768h-32V320h576v330.336c0 15.424 5.504 30.176 15.552 41.6 8.704 9.888 16.448 32.864 16.448 44.064 0 17.632-14.368 32-32 32s-32-14.368-32-32a32 32 0 0 0-64 0c0 52.928 43.072 96 96 96s96-43.072 96-96c0-27.84-14.24-65.76-32-85.664V288zM256 103.552L268.224 128h-24.448L256 103.552zM224 192h64v64H224V192z m0 128h64v25.376l-64 64V320z m0 134.624l64-64v114.752l-64 64v-114.752z m0 160l64-64v114.752l-64 64v-114.752z m64 96V768H230.624L288 710.624zM64 256V192h96v64H64z m292.896 576l21.312 128H133.792l21.312-128H356.896zM928 256H352V192h157.728L928 251.744V256z" fill="#5465CF" p-id="1809"></path></svg>